<?xml version="1.0" encoding="utf-8"?>
<!-- Generator: Adobe Illustrator 22.1.0, SVG Export Plug-In . SVG Version: 6.00 Build 0)  -->
<svg version="1.1" id="Calque_1" xmlns="http://www.w3.org/2000/svg" xmlns:xlink="http://www.w3.org/1999/xlink" x="0px" y="0px"
	 viewBox="0 0 922.1 698.5" style="enable-background:new 0 0 922.1 698.5;" xml:space="preserve">
<style type="text/css">
	.st0{fill:#2080FF;}
	.st1{fill:#29A2FC;}
	.st2{fill:#5AC0FF;}
	.st3{fill:#ECC817;}
	.st4{fill:#F4D223;}
	.st5{fill:#D6952B;}
	.st6{fill:#2A353C;}
	.st7{fill:#FAE57A;}
</style>
<g id="Calque_3">
	<g>
		<path class="st0" d="M21.8,486.5c-9.3-22.2-18.7-44.8-21.2-68.7s2.9-49.9,19.8-67c14.9-15.2,37.1-22,51-38.2
			c23.7-27.6,14.4-69.4,5.4-104.7s-13.5-79.3,15-101.9c33.3-26.5,88.1-3.4,122.1-29.2c25.7-19.5,30.7-61.2,60.5-73.5
			c11.1-4.6,23.8-3.9,35.5-0.9c34.7,8.9,63.2,36.8,98.7,40.9c31.7,3.7,61.9-12.2,91.8-23.3c29.9-11.1,66.9-16.4,91,4.6
			c14.1,12.3,21.1,31.7,36.4,42.4c32.5,22.6,82.5-5.2,114.9,17.6c28.9,20.3,22.6,64,33.6,97.6c17,51.9,75.1,77.3,107.9,121.1
			c19.6,26.2,29.6,59.3,27.8,91.9c-1.4,26.6-10.4,53.4-4.6,79.4c3.5,15.7,12.2,30,14.3,45.9c2.7,20.7-6.5,41.7-20.4,57.3
			s-32.2,26.7-50.5,36.6c-33.8,18.3-69,33.8-105.4,46.2c-37.7,12.9-77.9,22.6-117.1,15.5c-28.3-5.1-57.3-18.9-84.5-9.5
			c-19.7,6.8-34.3,24.7-54.4,30c-49.9,13.3-89.3-55.6-140.9-53.3c-31.4,1.4-62,29.6-90.7,16.7c-20.8-9.3-27.4-35.1-40.4-53.8
			c-15.1-21.7-41.4-35-67.8-34.3c-24,0.7-52.2,10.8-69.4-5.9c-7.9-7.7-10.7-19-15.1-29.1C55.9,516.4,26,494.7,21.8,486.5"/>
	</g>
</g>
<g id="Calque_3_1_">
	<g>
		<path class="st1" d="M91.5,464.7C83.7,446,75.8,427,73.7,406.9c-2.1-20.1,2.4-42,16.7-56.4c12.5-12.8,31.2-18.5,42.9-32.1
			c19.9-23.2,12.1-58.4,4.5-88.1s-11.4-66.7,12.6-85.7c28-22.3,74.1-2.9,102.7-24.6c21.6-16.4,25.8-51.5,50.9-61.8
			c9.3-3.9,20-3.3,29.9-0.8c29.2,7.5,53.2,31,83,34.4c26.7,3.1,52.1-10.3,77.2-19.6c25.2-9.3,56.3-13.8,76.6,3.9
			c11.9,10.3,17.8,26.7,30.6,35.7c27.3,19,69.4-4.4,96.7,14.8c24.3,17.1,19,53.8,28.3,82.1c14.3,43.7,63.2,65,90.8,101.9
			c16.5,22,24.9,49.9,23.4,77.3c-1.2,22.4-8.7,44.9-3.9,66.8c2.9,13.2,10.3,25.2,12,38.6c2.3,17.4-5.5,35.1-17.2,48.2
			s-27.1,22.5-42.5,30.8c-28.4,15.4-58,28.4-88.7,38.9c-31.7,10.9-65.5,19-98.5,13c-23.8-4.3-48.2-15.9-71.1-8
			c-16.6,5.7-28.9,20.8-45.8,25.2c-42,11.2-75.1-46.8-118.5-44.8c-26.4,1.2-52.2,24.9-76.3,14c-17.5-7.8-23.1-29.5-34-45.3
			c-12.7-18.3-34.8-29.4-57-28.9c-20.2,0.6-43.9,9.1-58.4-5c-6.6-6.5-9-16-12.7-24.5C120.2,489.9,95.1,471.6,91.5,464.7"/>
	</g>
</g>
<g id="Calque_3_2_">
	<g>
		<path class="st2" d="M162,442.7c-6.3-15.1-12.7-30.5-14.4-46.8s2-34,13.5-45.6c10.1-10.3,25.3-15,34.7-26
			c16.1-18.8,9.8-47.3,3.7-71.3s-9.2-54,10.2-69.4c22.7-18,60-2.3,83.1-19.9c17.5-13.3,20.9-41.7,41.2-50c7.6-3.1,16.2-2.7,24.2-0.6
			c23.6,6.1,43,25.1,67.2,27.8c21.6,2.5,42.1-8.3,62.5-15.9c20.4-7.6,45.6-11.2,62,3.1c9.6,8.4,14.4,21.6,24.8,28.9
			c22.1,15.4,56.2-3.5,78.2,12c19.7,13.8,15.4,43.6,22.9,66.5c11.6,35.3,51.1,52.6,73.5,82.5c13.3,17.8,20.2,40.4,18.9,62.6
			c-1,18.1-7.1,36.4-3.1,54.1c2.4,10.7,8.3,20.4,9.7,31.3c1.8,14.1-4.4,28.4-13.9,39c-9.5,10.6-21.9,18.2-34.4,24.9
			c-23,12.5-47,23-71.8,31.5c-25.7,8.8-53,15.4-79.7,10.6c-19.3-3.5-39-12.9-57.5-6.5c-13.4,4.6-23.4,16.8-37,20.4
			c-34,9.1-60.8-37.9-95.9-36.3c-21.4,1-42.2,20.2-61.8,11.4c-14.2-6.3-18.7-23.9-27.5-36.6c-10.3-14.8-28.2-23.8-46.2-23.4
			c-16.3,0.5-35.5,7.4-47.3-4c-5.4-5.2-7.3-12.9-10.3-19.8C185.2,463,164.8,448.3,162,442.7"/>
	</g>
</g>
<g id="logo">
	<g id="duck">
		<path class="st3" d="M671.3,249.7c0,0,80.8,63.8,68.9,171.7s-89.7,165-194.5,162.6c-104.9-2.4-220.6-82.4-259.7-169.5
			c-54.6-121.3-7.1-281.9-7.1-281.9S395.8,99.2,539.1,173C665.2,238,671.3,249.7,671.3,249.7z"/>
		<path class="st4" d="M704.6,231.9c0,87.8-71.1,158.9-158.9,158.9s-158.9-71.1-158.9-158.9C386.7,144.1,457.9,73,545.6,73
			S704.6,144.1,704.6,231.9z"/>
		<path class="st5" d="M686.2,308.2c0,0,10.8,22.6,23.6,33.7s20.6,29.8-5.2,54.4c-15.8,15-42.7,25.3-58.5,19.8s-38.8-51.2-59.4-52.3
			c-13.5-0.7-12.7-8.7-5.5-17.4c7.1-8.7,22.6-10.7,31.3-30.5s28.6-27.4,40.6-26.9c12.1,0.5,24-4.4,27.1-2.8
			C688.1,290.5,686.2,308.2,686.2,308.2z"/>
		<path class="st6" d="M559.7,321.3c0,11.4-9.2,20.6-20.6,20.6c-11.4,0-20.6-9.2-20.6-20.6s9.2-20.6,20.6-20.6
			C550.5,300.7,559.7,309.9,559.7,321.3z"/>
		<path class="st6" d="M698.3,249.2c0-11.4-3.8-20.6-8.5-20.6s-8.5,9.2-8.5,20.6s3.8,20.6,8.5,20.6S698.3,260.5,698.3,249.2z"/>
		<path class="st4" d="M455.7,407l-194-126.8c0,0-27.8,92.4,25.4,151.9c53.2,59.4,96.1,81.1,137.2,86.1c11.1,1.4,21.8-1.7,31.3-7.5
			C493.6,487.1,493.2,431.4,455.7,407z"/>
		<path class="st7" d="M582.9,114c-8.8,14.2,1.6,36.5,23.2,49.9c21.6,13.4,46.2,12.7,55-1.5s-1.6-36.5-23.2-49.9
			S591.7,99.8,582.9,114z"/>
	</g>
</g>
</svg>
