<?xml version="1.0" encoding="utf-8"?>
<!-- Generator: Adobe Illustrator 22.1.0, SVG Export Plug-In . SVG Version: 6.00 Build 0)  -->
<svg version="1.1" id="Calque_1" xmlns="http://www.w3.org/2000/svg" xmlns:xlink="http://www.w3.org/1999/xlink" x="0px" y="0px"
	 viewBox="0 0 236.6 284.2" style="enable-background:new 0 0 236.6 284.2;" xml:space="preserve">
<style type="text/css">
	.st0{fill:#FF7B4A;}
	.st1{fill:#FF435B;}
	.st2{fill:#FFB64C;}
	.st3{fill:#FF9100;}
	.st4{fill:#FFD396;}
</style>
<path class="st0" d="M88.9,248.8l9.5,21.7c0,0,5.6,13.6,20.4,13.6v-24.5L88.9,248.8z"/>
<path class="st1" d="M147.7,248.8l-9.5,21.3c0,0-5.6,14.1-19.6,14.1v-24.5L147.7,248.8z"/>
<g>
	<g>
		<path class="st2" d="M91,154.2C79.9,146,72.7,132.8,72.7,118c0-24.9,20.4-45.1,45.6-45.2V0.5C53.2,0.5,0.5,53.2,0.5,118.3
			s52.8,117.8,117.8,117.8v-89.9C108.3,146.2,99,149.1,91,154.2z"/>
		<path class="st3" d="M118.3,0.5v72.3h0.1c25.2,0,45.7,20.2,45.7,45.2c0,14.7-7.1,27.8-18.2,36.1c-8-5-17.4-7.9-27.4-7.9
			c-0.1,0-0.1,0-0.2,0v89.9c65.1,0,117.8-52.7,117.8-117.8S183.3,0.5,118.3,0.5z"/>
	</g>
	<path class="st4" d="M118.4,163.2c-10.3,0-19.8-3.4-27.4-9c-15.8,9.9-26.4,28.1-26.4,48.8c0,31.4,24.2,56.8,53.9,56.8L118.4,163.2
		C118.5,163.2,118.4,163.2,118.4,163.2z"/>
	<path class="st4" d="M118.5,163.2v-17c-10.1,0-19.5,2.9-27.5,8C98.6,159.8,108.1,163.2,118.5,163.2
		C118.4,163.2,118.5,163.2,118.5,163.2z"/>
	<path class="st2" d="M145.9,154.1c-7.6,5.7-17.1,9.1-27.4,9.1v96.6c29.7,0,53.9-25.4,53.9-56.8C172.4,182.2,161.8,164,145.9,154.1z
		"/>
	<path class="st2" d="M118.5,163.2c10.3,0,19.8-3.4,27.4-9.1c-8-5-17.4-7.9-27.4-7.9C118.5,146.2,118.5,163.2,118.5,163.2z"/>
</g>
</svg>
