<?xml version="1.0" encoding="utf-8"?>
<!-- Generator: Adobe Illustrator 22.1.0, SVG Export Plug-In . SVG Version: 6.00 Build 0)  -->
<svg version="1.1" id="Calque_1" xmlns="http://www.w3.org/2000/svg" xmlns:xlink="http://www.w3.org/1999/xlink" x="0px" y="0px"
	 viewBox="0 0 512 512" style="enable-background:new 0 0 512 512;" xml:space="preserve">
<style type="text/css">
	.st0{fill:#FF6348;}
</style>
<title>ionicons-v5-j</title>
<path class="st0" d="M317.9,101.4c-15.7-17-37.6-26.3-61.9-26.3c-24.4,0-46.4,9.3-62,26.2c-15.8,17-23.5,40.2-21.7,65.3
	c3.6,49.3,41.2,89.5,83.8,89.5s80.1-40.1,83.8-89.5C341.5,141.7,333.8,118.5,317.9,101.4z"/>
<path class="st0" d="M398.1,436.9H113.9c-7.5,0.1-14.7-3.2-19.5-9c-5.2-6.3-7.3-14.9-5.8-23.5c6.8-37.8,28.1-69.6,61.5-91.9
	c29.7-19.8,67.4-30.7,106-30.7s76.2,10.9,106,30.7c33.4,22.3,54.7,54,61.5,91.9c1.5,8.6-0.6,17.2-5.8,23.5
	C412.8,433.7,405.7,437,398.1,436.9z"/>
</svg>
