<?xml version="1.0" encoding="utf-8"?>
<!-- Generator: Adobe Illustrator 22.1.0, SVG Export Plug-In . SVG Version: 6.00 Build 0)  -->
<svg version="1.1" id="Calque_1" xmlns="http://www.w3.org/2000/svg" xmlns:xlink="http://www.w3.org/1999/xlink" x="0px" y="0px"
	 viewBox="0 0 512 512" style="enable-background:new 0 0 512 512;" xml:space="preserve">
<style type="text/css">
	.st0{opacity:0.65;fill:#FFB64C;}
</style>
<title>ionicons-v5-j</title>
<path class="st0" d="M332.6,64.6C313.2,43.6,286,32,256,32c-30.2,0-57.4,11.5-76.8,32.4c-19.6,21.1-29.1,49.8-26.9,80.8
	c4.4,61.1,51,110.8,103.7,110.8s99.2-49.7,103.7-110.8C361.9,114.5,352.3,85.8,332.6,64.6z"/>
<path class="st0" d="M432,480H80c-9.3,0.1-18.2-4-24.2-11.1c-6.5-7.8-9.1-18.4-7.2-29.1c8.4-46.8,34.8-86.2,76.2-113.8
	c36.8-24.5,83.4-38,131.2-38s94.4,13.5,131.2,38c41.4,27.6,67.7,66.9,76.2,113.8c1.9,10.7-0.7,21.3-7.2,29.1
	C450.2,476,441.3,480.1,432,480z"/>
</svg>
